<?xml version="1.0" encoding="utf-8"?>
<svg xmlns="http://www.w3.org/2000/svg" width="500" zoomAndPan="magnify" viewBox="3.172 115.791 375.529 146.061" height="500" preserveAspectRatio="xMidYMid meet" version="1.0" xmlns:bx="https://boxy-svg.com">
  <defs>
    <g/>
    <bx:export>
      <bx:file format="svg" path="Sin título.svg"/>
    </bx:export>
  </defs>
  <g fill="#00bf63" fill-opacity="1">
    <g transform="translate(0.0000045, 222.953349)">
      <g>
        <path d="M 67.515625 -83.328125 C 68.148438 -82.316406 68.71875 -80.960938 69.21875 -79.265625 C 69.726562 -77.566406 69.984375 -75.800781 69.984375 -73.96875 C 69.984375 -70.394531 69.226562 -67.851562 67.71875 -66.34375 C 66.207031 -64.832031 64.164062 -64.078125 61.59375 -64.078125 L 32.71875 -64.078125 L 32.71875 -48.53125 L 62.84375 -48.53125 C 63.570312 -47.53125 64.1875 -46.203125 64.6875 -44.546875 C 65.195312 -42.898438 65.453125 -41.160156 65.453125 -39.328125 C 65.453125 -35.835938 64.691406 -33.335938 63.171875 -31.828125 C 61.660156 -30.316406 59.625 -29.5625 57.0625 -29.5625 L 33 -29.5625 L 33 -0.546875 C 31.988281 -0.273438 30.40625 -0.00390625 28.25 0.265625 C 26.101562 0.546875 23.972656 0.6875 21.859375 0.6875 C 19.753906 0.6875 17.898438 0.523438 16.296875 0.203125 C 14.691406 -0.117188 13.335938 -0.691406 12.234375 -1.515625 C 11.140625 -2.335938 10.316406 -3.484375 9.765625 -4.953125 C 9.210938 -6.421875 8.9375 -8.34375 8.9375 -10.71875 L 8.9375 -70.53125 C 8.9375 -74.476562 10.082031 -77.597656 12.375 -79.890625 C 14.664062 -82.179688 17.78125 -83.328125 21.71875 -83.328125 Z M 67.515625 -83.328125 "/>
      </g>
    </g>
  </g>
  <g fill="#000000" fill-opacity="1">
    <g transform="translate(73.021856, 222.953349)">
      <g>
        <path d="M 30.9375 -0.140625 C 29.925781 0.046875 28.4375 0.296875 26.46875 0.609375 C 24.5 0.929688 22.503906 1.09375 20.484375 1.09375 C 18.472656 1.09375 16.664062 0.957031 15.0625 0.6875 C 13.457031 0.414062 12.101562 -0.128906 11 -0.953125 C 9.894531 -1.785156 9.046875 -2.910156 8.453125 -4.328125 C 7.859375 -5.753906 7.5625 -7.613281 7.5625 -9.90625 L 7.5625 -89.65625 C 8.570312 -89.832031 10.0625 -90.082031 12.03125 -90.40625 C 14 -90.726562 15.992188 -90.890625 18.015625 -90.890625 C 20.023438 -90.890625 21.832031 -90.75 23.4375 -90.46875 C 25.039062 -90.195312 26.394531 -89.648438 27.5 -88.828125 C 28.601562 -88.003906 29.453125 -86.878906 30.046875 -85.453125 C 30.640625 -84.035156 30.9375 -82.179688 30.9375 -79.890625 Z M 30.9375 -0.140625 "/>
      </g>
    </g>
  </g>
  <g fill="#000000" fill-opacity="1">
    <g transform="translate(111.516981, 222.953349)">
      <g>
        <path d="M 17.59375 -17.046875 C 16.59375 -19.335938 15.519531 -21.90625 14.375 -24.75 C 13.226562 -27.59375 12.035156 -30.847656 10.796875 -34.515625 C 9.554688 -38.179688 8.269531 -42.375 6.9375 -47.09375 C 5.613281 -51.8125 4.21875 -57.242188 2.75 -63.390625 C 4.03125 -64.671875 5.75 -65.789062 7.90625 -66.75 C 10.0625 -67.71875 12.421875 -68.203125 14.984375 -68.203125 C 18.191406 -68.203125 20.847656 -67.535156 22.953125 -66.203125 C 25.066406 -64.878906 26.628906 -62.382812 27.640625 -58.71875 L 38.5 -20.90625 L 39.046875 -20.90625 C 40.148438 -24.019531 41.226562 -27.410156 42.28125 -31.078125 C 43.332031 -34.742188 44.363281 -38.523438 45.375 -42.421875 C 46.382812 -46.316406 47.320312 -50.210938 48.1875 -54.109375 C 49.0625 -58.003906 49.820312 -61.832031 50.46875 -65.59375 C 53.757812 -67.332031 57.378906 -68.203125 61.328125 -68.203125 C 64.535156 -68.203125 67.191406 -67.515625 69.296875 -66.140625 C 71.410156 -64.765625 72.46875 -62.378906 72.46875 -58.984375 C 72.46875 -56.515625 72.144531 -53.648438 71.5 -50.390625 C 70.851562 -47.140625 70.003906 -43.679688 68.953125 -40.015625 C 67.898438 -36.347656 66.660156 -32.566406 65.234375 -28.671875 C 63.816406 -24.773438 62.328125 -20.945312 60.765625 -17.1875 C 59.210938 -13.425781 57.609375 -9.875 55.953125 -6.53125 C 54.304688 -3.1875 52.707031 -0.1875 51.15625 2.46875 C 48.582031 6.96875 46.195312 10.632812 44 13.46875 C 41.800781 16.3125 39.691406 18.535156 37.671875 20.140625 C 35.660156 21.742188 33.644531 22.84375 31.625 23.4375 C 29.601562 24.039062 27.492188 24.34375 25.296875 24.34375 C 21.453125 24.34375 18.335938 23.195312 15.953125 20.90625 C 13.566406 18.613281 12.144531 15.632812 11.6875 11.96875 C 14.625 9.675781 17.554688 7.128906 20.484375 4.328125 C 23.421875 1.535156 26.082031 -1.328125 28.46875 -4.265625 C 26.90625 -4.722656 25.226562 -5.796875 23.4375 -7.484375 C 21.65625 -9.179688 19.707031 -12.367188 17.59375 -17.046875 Z M 17.59375 -17.046875 "/>
      </g>
    </g>
  </g>
  <g fill="#000000" fill-opacity="1">
    <g transform="translate(187.269875, 222.953349)">
      <g>
        <path d="M 7.421875 -66.828125 C 7.421875 -71.503906 8.222656 -75.515625 9.828125 -78.859375 C 11.429688 -82.203125 13.609375 -84.953125 16.359375 -87.109375 C 19.109375 -89.265625 22.335938 -90.84375 26.046875 -91.84375 C 29.765625 -92.851562 33.734375 -93.359375 37.953125 -93.359375 C 44.734375 -93.359375 49.726562 -92.460938 52.9375 -90.671875 C 56.144531 -88.890625 57.75 -85.84375 57.75 -81.53125 C 57.75 -79.695312 57.359375 -78.046875 56.578125 -76.578125 C 55.796875 -75.117188 54.945312 -74.019531 54.03125 -73.28125 C 52.289062 -73.738281 50.476562 -74.128906 48.59375 -74.453125 C 46.71875 -74.773438 44.546875 -74.9375 42.078125 -74.9375 C 38.128906 -74.9375 35.054688 -74.269531 32.859375 -72.9375 C 30.660156 -71.613281 29.5625 -69.300781 29.5625 -66 L 29.5625 -61.59375 L 52.109375 -61.59375 C 52.660156 -60.59375 53.1875 -59.332031 53.6875 -57.8125 C 54.195312 -56.300781 54.453125 -54.628906 54.453125 -52.796875 C 54.453125 -49.585938 53.738281 -47.269531 52.3125 -45.84375 C 50.894531 -44.425781 48.992188 -43.71875 46.609375 -43.71875 L 30.796875 -43.71875 L 30.796875 -0.140625 C 29.878906 0.140625 28.4375 0.414062 26.46875 0.6875 C 24.5 0.957031 22.457031 1.09375 20.34375 1.09375 C 18.332031 1.09375 16.523438 0.957031 14.921875 0.6875 C 13.316406 0.414062 11.960938 -0.128906 10.859375 -0.953125 C 9.765625 -1.785156 8.914062 -2.910156 8.3125 -4.328125 C 7.71875 -5.753906 7.421875 -7.613281 7.421875 -9.90625 Z M 7.421875 -66.828125 "/>
      </g>
    </g>
  </g>
  <g fill="#000000" fill-opacity="1">
    <g transform="translate(243.637486, 222.953349)">
      <g>
        <path d="M 35.75 -14.84375 C 37.3125 -14.84375 39.03125 -15.003906 40.90625 -15.328125 C 42.78125 -15.648438 44.175781 -16.085938 45.09375 -16.640625 L 45.09375 -27.640625 L 35.203125 -26.8125 C 32.628906 -26.625 30.519531 -26.070312 28.875 -25.15625 C 27.226562 -24.238281 26.40625 -22.863281 26.40625 -21.03125 C 26.40625 -19.195312 27.113281 -17.707031 28.53125 -16.5625 C 29.945312 -15.414062 32.351562 -14.84375 35.75 -14.84375 Z M 34.65625 -68.890625 C 39.601562 -68.890625 44.113281 -68.382812 48.1875 -67.375 C 52.269531 -66.363281 55.753906 -64.828125 58.640625 -62.765625 C 61.523438 -60.703125 63.75 -58.085938 65.3125 -54.921875 C 66.875 -51.765625 67.65625 -48.03125 67.65625 -43.71875 L 67.65625 -12.921875 C 67.65625 -10.535156 66.988281 -8.585938 65.65625 -7.078125 C 64.320312 -5.566406 62.738281 -4.257812 60.90625 -3.15625 C 54.945312 0.414062 46.5625 2.203125 35.75 2.203125 C 30.894531 2.203125 26.519531 1.742188 22.625 0.828125 C 18.726562 -0.0859375 15.378906 -1.460938 12.578125 -3.296875 C 9.785156 -5.128906 7.628906 -7.46875 6.109375 -10.3125 C 4.597656 -13.15625 3.84375 -16.457031 3.84375 -20.21875 C 3.84375 -26.539062 5.722656 -31.394531 9.484375 -34.78125 C 13.242188 -38.175781 19.066406 -40.285156 26.953125 -41.109375 L 44.96875 -43.03125 L 44.96875 -44 C 44.96875 -46.65625 43.796875 -48.554688 41.453125 -49.703125 C 39.117188 -50.847656 35.75 -51.421875 31.34375 -51.421875 C 27.863281 -51.421875 24.472656 -51.050781 21.171875 -50.3125 C 17.867188 -49.582031 14.890625 -48.671875 12.234375 -47.578125 C 11.046875 -48.398438 10.035156 -49.660156 9.203125 -51.359375 C 8.378906 -53.054688 7.96875 -54.820312 7.96875 -56.65625 C 7.96875 -59.03125 8.539062 -60.925781 9.6875 -62.34375 C 10.832031 -63.769531 12.597656 -64.988281 14.984375 -66 C 17.640625 -67.007812 20.78125 -67.742188 24.40625 -68.203125 C 28.03125 -68.660156 31.445312 -68.890625 34.65625 -68.890625 Z M 34.65625 -68.890625 "/>
      </g>
    </g>
  </g>
  <g fill="#000000" fill-opacity="1">
    <g transform="translate(318.427998, 222.953349)">
      <g>
        <path d="M 30.53125 -0.140625 C 29.613281 0.140625 28.164062 0.414062 26.1875 0.6875 C 24.21875 0.957031 22.179688 1.09375 20.078125 1.09375 C 18.054688 1.09375 16.242188 0.957031 14.640625 0.6875 C 13.035156 0.414062 11.679688 -0.128906 10.578125 -0.953125 C 9.484375 -1.785156 8.640625 -2.910156 8.046875 -4.328125 C 7.453125 -5.753906 7.15625 -7.613281 7.15625 -9.90625 L 7.15625 -51.15625 C 7.15625 -53.257812 7.539062 -55.066406 8.3125 -56.578125 C 9.09375 -58.085938 10.21875 -59.441406 11.6875 -60.640625 C 13.15625 -61.828125 14.960938 -62.898438 17.109375 -63.859375 C 19.265625 -64.828125 21.582031 -65.675781 24.0625 -66.40625 C 26.539062 -67.144531 29.109375 -67.71875 31.765625 -68.125 C 34.421875 -68.539062 37.078125 -68.75 39.734375 -68.75 C 44.140625 -68.75 47.625 -67.898438 50.1875 -66.203125 C 52.75 -64.503906 54.03125 -61.734375 54.03125 -57.890625 C 54.03125 -56.609375 53.847656 -55.347656 53.484375 -54.109375 C 53.117188 -52.867188 52.660156 -51.742188 52.109375 -50.734375 C 50.179688 -50.734375 48.207031 -50.640625 46.1875 -50.453125 C 44.175781 -50.273438 42.207031 -50.003906 40.28125 -49.640625 C 38.363281 -49.273438 36.554688 -48.882812 34.859375 -48.46875 C 33.160156 -48.050781 31.71875 -47.570312 30.53125 -47.03125 Z M 30.53125 -0.140625 "/>
      </g>
    </g>
  </g>
</svg>